<svg width="24" height="24" viewBox="0 0 24 24" fill="none" xmlns="http://www.w3.org/2000/svg">
<path d="M24 12.2303C24 11.2466 23.9183 10.5287 23.7415 9.78427H12.2449V14.2244H18.9931C18.8571 15.3278 18.1224 16.9895 16.4897 18.1062L16.4668 18.2548L20.1019 21.0063L20.3537 21.0309C22.6666 18.9437 24 15.8728 24 12.2303Z" fill="#4285F4"/>
<path d="M12.2449 23.9289C15.551 23.9289 18.3265 22.8654 20.3538 21.0309L16.4898 18.1062C15.4558 18.8107 14.068 19.3026 12.2449 19.3026C9.00688 19.3026 6.2586 17.2155 5.27892 14.3308L5.13532 14.3427L1.35558 17.2009L1.30615 17.3351C3.31973 21.2435 7.45579 23.9289 12.2449 23.9289Z" fill="#34A853"/>
<path d="M5.27885 14.3308C5.02036 13.5863 4.87075 12.7886 4.87075 11.9645C4.87075 11.1402 5.02036 10.3426 5.26525 9.59814L5.25841 9.43959L1.43131 6.53549L1.30609 6.59369C0.476195 8.21556 0 10.0369 0 11.9645C0 13.8921 0.476195 15.7133 1.30609 17.3351L5.27885 14.3308Z" fill="#FBBC05"/>
<path d="M12.2449 4.62623C14.5442 4.62623 16.0952 5.59668 16.9796 6.40766L20.4354 3.11076C18.313 1.18316 15.551 0 12.2449 0C7.45579 0 3.31973 2.68534 1.30615 6.5937L5.26532 9.59815C6.2586 6.71339 9.00688 4.62623 12.2449 4.62623Z" fill="#EB4335"/>
</svg>
