<svg width="14" height="17" viewBox="0 0 14 17" fill="none" xmlns="http://www.w3.org/2000/svg">
<path d="M7 14.6746L10.506 10.9623C12.4424 8.91208 12.4424 5.58794 10.506 3.53769C8.56974 1.48744 5.43028 1.48744 3.49393 3.53769C1.55758 5.58794 1.55758 8.91208 3.49393 10.9623L7 14.6746ZM7 16.7959L2.49219 12.023C0.00260174 9.3869 0.00260174 5.11307 2.49219 2.47703C4.98179 -0.15901 9.01818 -0.15901 11.5078 2.47703C13.9974 5.11307 13.9974 9.3869 11.5078 12.023L7 16.7959ZM7 8.75C7.78242 8.75 8.41667 8.07845 8.41667 7.25C8.41667 6.42157 7.78242 5.75 7 5.75C6.21757 5.75 5.58333 6.42157 5.58333 7.25C5.58333 8.07845 6.21757 8.75 7 8.75ZM7 10.25C5.43519 10.25 4.16667 8.90683 4.16667 7.25C4.16667 5.59315 5.43519 4.25 7 4.25C8.56478 4.25 9.83333 5.59315 9.83333 7.25C9.83333 8.90683 8.56478 10.25 7 10.25Z" fill="black"/>
</svg>
