<svg width="30" height="30" viewBox="0 0 30 30" fill="none" xmlns="http://www.w3.org/2000/svg">
<path d="M5.51386 3.385C11.4059 -1.44258 20.1141 -1.10646 25.614 4.39339C31.4718 10.2513 31.4718 19.7487 25.614 25.6067C19.756 31.4645 10.2586 31.4645 4.40073 25.6067C0.613978 21.8199 -0.724862 16.5121 0.384163 11.65L0.499123 11.1809L3.40077 11.9447C2.3545 15.9345 3.39493 20.3582 6.52204 23.4854C11.2083 28.1715 18.8062 28.1715 23.4925 23.4854C28.1788 18.7991 28.1788 11.201 23.4925 6.51473C19.2661 2.28825 12.6712 1.87355 7.98009 5.27063L7.64829 5.51974L9.1737 7.04505L2.2794 8.63604L3.87039 1.74176L5.51386 3.385ZM16.5073 6V9H20.2573V12H12.0073C11.5931 12 11.2573 12.3358 11.2573 12.75C11.2573 13.1182 11.5226 13.4244 11.8725 13.4879L12.0073 13.5H18.0073C20.0784 13.5 21.7573 15.179 21.7573 17.25C21.7573 19.3211 20.0784 21 18.0073 21H16.5073V24H13.5073V21H9.75732V18H18.0073C18.4215 18 18.7573 17.6642 18.7573 17.25C18.7573 16.8818 18.492 16.5756 18.1422 16.5121L18.0073 16.5H12.0073C9.93625 16.5 8.25732 14.821 8.25732 12.75C8.25732 10.6789 9.93625 9 12.0073 9H13.5073V6H16.5073Z" fill="black"/>
</svg>
