<svg width="38" height="38" viewBox="0 0 38 38" fill="none" xmlns="http://www.w3.org/2000/svg">
<path d="M16.0927 0.666656L30.0811 4.84796C30.8811 5.08714 31.426 5.79597 31.426 6.59784V9.83332H35.2593C36.3179 9.83332 37.176 10.6541 37.176 11.6667V15.3333H12.2593V11.6667C12.2593 10.6541 13.1174 9.83332 14.176 9.83332H27.5927V7.94499L16.0927 4.50566L4.59261 7.94499V21.5197C4.59261 23.802 5.70271 25.9454 7.57957 27.3285L7.94038 27.5787L16.0927 32.8948L23.3415 28.1667H14.176C13.1174 28.1667 12.2593 27.3459 12.2593 26.3333V19H37.176V26.3333C37.176 27.3459 36.3179 28.1667 35.2593 28.1667L29.0875 28.1687C28.3465 29.1031 27.4445 29.93 26.4043 30.6083L16.0927 37.3333L5.78091 30.6083C2.63905 28.5592 0.759277 25.1571 0.759277 21.5197V6.59784C0.759277 5.79597 1.30409 5.08714 2.10426 4.84796L16.0927 0.666656Z" fill="black"/>
</svg>
