<svg width="30" height="28" viewBox="0 0 30 28" fill="none" xmlns="http://www.w3.org/2000/svg">
<path d="M28.5074 0.499634C29.3358 0.499634 30.0074 1.1712 30.0074 1.99963V10.2496C27.9363 10.2496 26.2574 11.9286 26.2574 13.9996C26.2574 16.0707 27.9363 17.7496 30.0074 17.7496V25.9996C30.0074 26.8281 29.3358 27.4996 28.5074 27.4996H1.50732C0.678904 27.4996 0.00732422 26.8281 0.00732422 25.9996V17.7496C2.07839 17.7496 3.75732 16.0707 3.75732 13.9996C3.75732 11.9286 2.07839 10.2496 0.00732422 10.2496V1.99963C0.00732422 1.1712 0.678904 0.499634 1.50732 0.499634H28.5074ZM27.0074 3.49963H3.00732V7.95163L3.24116 8.07324C5.24903 9.17121 6.63774 11.2599 6.74997 13.6819L6.75732 13.9996C6.75732 16.5559 5.33633 18.7803 3.24116 19.926L3.00732 20.0461V24.4996H27.0074V20.0461L26.7735 19.926C24.7656 18.828 23.3769 16.7394 23.2647 14.3173L23.2574 13.9996C23.2574 11.4433 24.6783 9.21894 26.7735 8.07324L27.0074 7.95163V3.49963ZM21.0074 9.49963V18.4996H9.00732V9.49963H21.0074Z" fill="black"/>
</svg>
